<svg width="111" height="110" viewBox="0 0 111 110" fill="none" xmlns="http://www.w3.org/2000/svg">
<path d="M97.9785 53.7726C102.453 58.2473 102.453 65.5023 97.9785 69.9771C93.5038 74.4518 86.2488 74.4518 81.774 69.9771C77.2993 65.5023 77.2993 58.2473 81.774 53.7726C86.2488 49.2978 93.5038 49.2978 97.9785 53.7726" stroke="#ECECEC" stroke-width="3" stroke-linecap="round" stroke-linejoin="round"/>
<path d="M28.0013 13.75H18.8346C13.7701 13.75 9.66797 17.8521 9.66797 22.9167V41.25C9.66797 56.4392 21.9788 68.75 37.168 68.75C52.3571 68.75 64.668 56.4392 64.668 41.25V22.9167C64.668 17.8521 60.5659 13.75 55.5013 13.75H46.3346" stroke="#ECECEC" stroke-width="3" stroke-linecap="round" stroke-linejoin="round"/>
<path d="M89.8763 73.3333V74.4792C89.8763 89.0358 78.0788 100.833 63.5221 100.833C48.9655 100.833 37.168 89.0358 37.168 74.4792V68.75" stroke="#ECECEC" stroke-width="3" stroke-linecap="round" stroke-linejoin="round"/>
<path d="M27.9987 9.1665V18.3332" stroke="#ECECEC" stroke-width="3" stroke-linecap="round" stroke-linejoin="round"/>
<path d="M46.3346 9.1665V18.3332" stroke="#ECECEC" stroke-width="3" stroke-linecap="round" stroke-linejoin="round"/>
</svg>
