<svg width="111" height="110" viewBox="0 0 111 110" fill="none" xmlns="http://www.w3.org/2000/svg">
<path d="M69.2513 23.8335C77.043 31.6252 77.043 44.0002 69.2513 51.3335C61.4596 58.6668 49.0846 59.1252 41.7513 51.3335C34.418 43.5418 33.9596 31.1668 41.7513 23.8335C49.543 16.5002 61.4596 16.5002 69.2513 23.8335" stroke="#ECECEC" stroke-width="3" stroke-linecap="round" stroke-linejoin="round"/>
<path d="M18.832 91.6665C18.832 80.2082 27.9987 71.0415 39.457 71.0415H51.3737" stroke="#ECECEC" stroke-width="3" stroke-linecap="round" stroke-linejoin="round"/>
<path fill-rule="evenodd" clip-rule="evenodd" d="M64.668 96.25H75.2096L90.793 80.6667C92.6263 78.8333 92.6263 76.0833 90.793 74.25L86.668 70.125C84.8346 68.2917 82.0846 68.2917 80.2513 70.125L64.668 85.7083V96.25V96.25H64.668Z" stroke="#ECECEC" stroke-width="3" stroke-linecap="round" stroke-linejoin="round"/>
</svg>
